<?xml version="1.0" standalone="no"?>
<!DOCTYPE svg PUBLIC "-//W3C//DTD SVG 20010904//EN"
 "http://www.w3.org/TR/2001/REC-SVG-20010904/DTD/svg10.dtd">
<svg version="1.0" xmlns="http://www.w3.org/2000/svg"
 width="512.000000pt" height="512.000000pt" viewBox="0 0 512.000000 512.000000"
 preserveAspectRatio="xMidYMid meet">
<metadata>
Created by potrace 1.14, written by Peter Selinger 2001-2017
</metadata>
<g transform="translate(0.000000,512.000000) scale(0.100000,-0.100000)"
fill="#000000" stroke="none">
<path d="M2321 5072 c-19 -19 -22 -30 -18 -59 4 -20 17 -48 31 -62 22 -24 24
-32 19 -98 l-6 -73 -41 -1 c-137 -2 -317 -26 -476 -64 -3 -1 -21 -5 -40 -9
-63 -14 -223 -68 -310 -103 -190 -78 -384 -190 -555 -320 -110 -84 -306 -274
-380 -368 -22 -27 -44 -55 -50 -61 -5 -6 -17 -22 -25 -34 -8 -12 -24 -34 -35
-48 -80 -104 -218 -362 -278 -522 -75 -197 -119 -384 -147 -625 -9 -75 -7
-466 2 -481 3 -5 9 -40 12 -79 4 -38 11 -83 16 -100 5 -16 12 -50 15 -75 11
-67 81 -290 126 -399 223 -535 633 -972 1154 -1226 210 -102 452 -181 648
-211 15 -2 42 -6 60 -9 225 -35 562 -26 797 21 628 125 1188 504 1535 1039 64
98 154 267 190 355 14 36 32 79 40 95 17 39 70 213 90 295 18 74 20 86 31 155
4 28 9 57 10 65 4 18 16 143 18 185 2 29 3 30 46 28 137 -6 258 -3 281 5 34
13 37 34 34 191 -3 143 -25 259 -86 445 -181 557 -626 1241 -1039 1600 -63 54
-214 166 -281 207 -30 19 -64 40 -75 47 -43 28 -264 131 -332 156 -243 87
-421 116 -675 112 -121 -2 -170 1 -175 9 -13 22 -57 44 -82 42 -14 -1 -36 -12
-49 -25z"/>
</g>
</svg>
